<?xml version="1.0" encoding="utf-8"?>
<!-- Generator: Adobe Illustrator 16.0.0, SVG Export Plug-In . SVG Version: 6.00 Build 0)  -->
<!DOCTYPE svg PUBLIC "-//W3C//DTD SVG 1.1//EN" "http://www.w3.org/Graphics/SVG/1.1/DTD/svg11.dtd">
<svg version="1.1" id="Layer_1" xmlns="http://www.w3.org/2000/svg" xmlns:xlink="http://www.w3.org/1999/xlink" x="0px" y="0px"
	 width="32.579px" height="31.746px" viewBox="0 0 32.579 31.746" enable-background="new 0 0 32.579 31.746" xml:space="preserve">
<path fill="#222222" d="M16.289,0C7.294,0,0,7.294,0,16.291c0,7.197,4.667,13.302,11.141,15.457
	c0.814,0.148,1.112-0.354,1.112-0.785c0-0.387-0.014-1.412-0.022-2.771c-4.531,0.984-5.487-2.184-5.487-2.184
	c-0.741-1.881-1.809-2.383-1.809-2.383c-1.479-1.01,0.112-0.99,0.112-0.99c1.635,0.115,2.495,1.68,2.495,1.68
	c1.453,2.488,3.813,1.771,4.741,1.354c0.148-1.053,0.569-1.771,1.034-2.178c-3.617-0.412-7.42-1.81-7.42-8.051
	c0-1.778,0.635-3.232,1.677-4.371c-0.167-0.412-0.727-2.068,0.16-4.311c0,0,1.368-0.438,4.479,1.67
	c1.299-0.361,2.693-0.543,4.078-0.549c1.383,0.006,2.776,0.188,4.079,0.549c3.109-2.108,4.477-1.67,4.477-1.67
	c0.889,2.242,0.328,3.898,0.16,4.311c1.043,1.139,1.676,2.593,1.676,4.371c0,6.258-3.811,7.635-7.438,8.039
	c0.586,0.504,1.104,1.498,1.104,3.019c0,2.178-0.021,3.935-0.021,4.469c0,0.437,0.293,0.941,1.119,0.783
	c6.469-2.158,11.131-8.26,11.131-15.455C32.579,7.294,25.286,0,16.289,0z"/>
</svg>
