<?xml version="1.0" encoding="utf-8"?>
<!-- Generator: Adobe Illustrator 16.0.0, SVG Export Plug-In . SVG Version: 6.00 Build 0)  -->
<!DOCTYPE svg PUBLIC "-//W3C//DTD SVG 1.1//EN" "http://www.w3.org/Graphics/SVG/1.1/DTD/svg11.dtd">
<svg version="1.1" id="YouTube_Icon" xmlns="http://www.w3.org/2000/svg" xmlns:xlink="http://www.w3.org/1999/xlink" x="0px"
	 y="0px" width="1024px" height="1024px" viewBox="0 -152.788 1024 1024" enable-background="new 0 -152.788 1024 1024"
	 xml:space="preserve">
<path id="The_Sharpness" opacity="0.12" enable-background="new    " d="M407,202.993l242.042,161.625L683,346.993L407,202.993z"/>
<g id="Lozenge">
	<g>
		<path fill="#222222" d="M1013.023,153.274c0,0-9.981-70.389-40.606-101.386c-38.842-40.684-82.38-40.885-102.346-43.267
			C727.133-1.712,512.719-1.712,512.719-1.712h-0.441c0,0-214.408,0-357.353,10.333c-19.967,2.381-63.49,2.583-102.346,43.267
			c-30.624,30.997-40.59,101.386-40.59,101.386S1.775,235.934,1.775,318.593v77.493c0,82.658,10.215,165.317,10.215,165.317
			s9.966,70.39,40.591,101.387c38.856,40.687,89.896,39.397,112.629,43.661c81.718,7.836,347.29,10.261,347.29,10.261
			s214.634-0.32,357.571-10.652c19.966-2.385,63.504-2.583,102.346-43.27c30.625-30.997,40.606-101.387,40.606-101.387
			s10.197-82.659,10.197-165.317v-77.493C1023.224,235.934,1013.023,153.274,1013.023,153.274z M407.047,489.993l-0.047-287l276,144
			L407.047,489.993z"/>
	</g>
</g>
</svg>
