<svg width="1920" height="908" xmlns="http://www.w3.org/2000/svg"><g><path d="M-30.44420669950567,-122.98499009183405L-68.38512822607608,19.854454442982203L131.6672170135526,-26.148849292121554Z" fill="#f79263" stroke="#f79263"/><path d="M-30.44420669950567,-122.98499009183405L131.6672170135526,-26.148849292121554L205.03155598215932,-57.36253726325732Z" fill="#f89568" stroke="#f89568"/><path d="M-30.44420669950567,-122.98499009183405L205.03155598215932,-57.36253726325732L405.34367929310616,-49.87900819109677Z" fill="#f89c71" stroke="#f89c71"/><path d="M-30.44420669950567,-122.98499009183405L405.34367929310616,-49.87900819109677L694.7070580235468,-74.14362010678731Z" fill="#f9a982" stroke="#f9a982"/><path d="M-30.44420669950567,-122.98499009183405L694.7070580235468,-74.14362010678731L821.3318662918222,-96.14897262951156Z" fill="#fab38f" stroke="#fab38f"/><path d="M-30.44420669950567,-122.98499009183405L821.3318662918222,-96.14897262951156L917.1544421153054,-113.7544882300302Z" fill="#fbb795" stroke="#fbb795"/><path d="M-30.44420669950567,-122.98499009183405L917.1544421153054,-113.7544882300302L2069.2632228352263,-129.03210870335053Z" fill="#d4a68f" stroke="#d4a68f"/><path d="M131.6672170135526,-26.148849292121554L-68.38512822607608,19.854454442982203L130.65619204878655,30.8603878495543Z" fill="#f89e75" stroke="#f89e75"/><path d="M131.6672170135526,-26.148849292121554L130.65619204878655,30.8603878495543L205.03155598215932,-57.36253726325732Z" fill="#f8a27a" stroke="#f8a27a"/><path d="M205.03155598215932,-57.36253726325732L130.65619204878655,30.8603878495543L212.6011949682636,97.01710111662972Z" fill="#f8aa87" stroke="#f8aa87"/><path d="M205.03155598215932,-57.36253726325732L212.6011949682636,97.01710111662972L360.2152710711756,92.21890172104311Z" fill="#f9b494" stroke="#f9b494"/><path d="M205.03155598215932,-57.36253726325732L360.2152710711756,92.21890172104311L405.34367929310616,-49.87900819109677Z" fill="#f9b290" stroke="#f9b290"/><path d="M405.34367929310616,-49.87900819109677L360.2152710711756,92.21890172104311L568.6056345635443,69.37378647542323Z" fill="#fac3a8" stroke="#fac3a8"/><path d="M405.34367929310616,-49.87900819109677L568.6056345635443,69.37378647542323L582.3463708087143,-44.53784053958768Z" fill="#fac2a6" stroke="#fac2a6"/><path d="M405.34367929310616,-49.87900819109677L582.3463708087143,-44.53784053958768L694.7070580235468,-74.14362010678731Z" fill="#fbbfa0" stroke="#fbbfa0"/><path d="M582.3463708087143,-44.53784053958768L568.6056345635443,69.37378647542323L694.360547874349,39.364045490772654Z" fill="#fbcfb8" stroke="#fbcfb8"/><path d="M582.3463708087143,-44.53784053958768L694.360547874349,39.364045490772654L694.7070580235468,-74.14362010678731Z" fill="#f9c9b0" stroke="#f9c9b0"/><path d="M694.7070580235468,-74.14362010678731L694.360547874349,39.364045490772654L829.0365862049152,43.71731098036146Z" fill="#f0c8b4" stroke="#f0c8b4"/><path d="M694.7070580235468,-74.14362010678731L829.0365862049152,43.71731098036146L821.3318662918222,-96.14897262951156Z" fill="#ebbfa8" stroke="#ebbfa8"/><path d="M821.3318662918222,-96.14897262951156L829.0365862049152,43.71731098036146L927.3227934679039,27.489733839817315Z" fill="#e3bfad" stroke="#e3bfad"/><path d="M821.3318662918222,-96.14897262951156L927.3227934679039,27.489733839817315L917.1544421153054,-113.7544882300302Z" fill="#dfb6a0" stroke="#dfb6a0"/><path d="M917.1544421153054,-113.7544882300302L927.3227934679039,27.489733839817315L1114.0821995437946,-86.31684295689718Z" fill="#d4b09e" stroke="#d4b09e"/><path d="M917.1544421153054,-113.7544882300302L1114.0821995437946,-86.31684295689718L1251.8509711948232,-107.53468692360366Z" fill="#c8a391" stroke="#c8a391"/><path d="M917.1544421153054,-113.7544882300302L1251.8509711948232,-107.53468692360366L2069.2632228352263,-129.03210870335053Z" fill="#a48d84" stroke="#a48d84"/><path d="M1114.0821995437946,-86.31684295689718L927.3227934679039,27.489733839817315L1096.666795076385,94.49254860714231Z" fill="#ceb7ac" stroke="#ceb7ac"/><path d="M1114.0821995437946,-86.31684295689718L1096.666795076385,94.49254860714231L1251.8509711948232,-107.53468692360366Z" fill="#c1a99f" stroke="#c1a99f"/><path d="M1251.8509711948232,-107.53468692360366L1096.666795076385,94.49254860714231L1308.3789522174138,127.73790313872293Z" fill="#bab0ad" stroke="#bab0ad"/><path d="M1251.8509711948232,-107.53468692360366L1308.3789522174138,127.73790313872293L1377.429372177429,-32.42347124633751Z" fill="#b0a4a0" stroke="#b0a4a0"/><path d="M1251.8509711948232,-107.53468692360366L1377.429372177429,-32.42347124633751L1518.0995944915092,-90.3845523167165Z" fill="#a8958e" stroke="#a8958e"/><path d="M1251.8509711948232,-107.53468692360366L1518.0995944915092,-90.3845523167165L2069.2632228352263,-129.03210870335053Z" fill="#8e827f" stroke="#8e827f"/><path d="M1377.429372177429,-32.42347124633751L1308.3789522174138,127.73790313872293L1474.260011443717,116.29989310592084Z" fill="#a7abaf" stroke="#a7abaf"/><path d="M1377.429372177429,-32.42347124633751L1474.260011443717,116.29989310592084L1518.0995944915092,-90.3845523167165Z" fill="#9f9b9c" stroke="#9f9b9c"/><path d="M1518.0995944915092,-90.3845523167165L1474.260011443717,116.29989310592084L1556.023938751555,127.51855639778277Z" fill="#99a0a6" stroke="#99a0a6"/><path d="M1518.0995944915092,-90.3845523167165L1556.023938751555,127.51855639778277L1689.9839036094531,61.8289525750561Z" fill="#9199a0" stroke="#9199a0"/><path d="M1518.0995944915092,-90.3845523167165L1689.9839036094531,61.8289525750561L1749.570413314677,-71.13446474864139Z" fill="#898b8f" stroke="#898b8f"/><path d="M1518.0995944915092,-90.3845523167165L1749.570413314677,-71.13446474864139L2069.2632228352263,-129.03210870335053Z" fill="#807a7d" stroke="#807a7d"/><path d="M1749.570413314677,-71.13446474864139L1689.9839036094531,61.8289525750561L1883.7845310100352,77.06022268045908Z" fill="#808c98" stroke="#808c98"/><path d="M1749.570413314677,-71.13446474864139L1883.7845310100352,77.06022268045908L1887.974426317387,-32.926450484972776Z" fill="#80838f" stroke="#80838f"/><path d="M1749.570413314677,-71.13446474864139L1887.974426317387,-32.926450484972776L2069.2632228352263,-129.03210870335053Z" fill="#80757d" stroke="#80757d"/><path d="M1887.974426317387,-32.926450484972776L1883.7845310100352,77.06022268045908L1986.9205377824026,119.78184623824603Z" fill="#80889b" stroke="#80889b"/><path d="M1887.974426317387,-32.926450484972776L1986.9205377824026,119.78184623824603L2069.2632228352263,-129.03210870335053Z" fill="#807a89" stroke="#807a89"/><path d="M2069.2632228352263,-129.03210870335053L1986.9205377824026,119.78184623824603L2066.774543953526,283.12128353959565Z" fill="#80869f" stroke="#80869f"/><path d="M2069.2632228352263,-129.03210870335053L2066.774543953526,283.12128353959565L2067.9033603950015,475.8678471399509Z" fill="#8096ba" stroke="#8096ba"/><path d="M-68.38512822607608,19.854454442982203L-111.72035759266032,282.51192609070677L32.259135055161146,266.05632521845956Z" fill="#f7b091" stroke="#f7b091"/><path d="M-68.38512822607608,19.854454442982203L32.259135055161146,266.05632521845956L130.65619204878655,30.8603878495543Z" fill="#f7aa87" stroke="#f7aa87"/><path d="M130.65619204878655,30.8603878495543L32.259135055161146,266.05632521845956L212.6011949682636,97.01710111662972Z" fill="#f8b598" stroke="#f8b598"/><path d="M212.6011949682636,97.01710111662972L32.259135055161146,266.05632521845956L234.77962350238525,234.00357730900657Z" fill="#f8c3ac" stroke="#f8c3ac"/><path d="M212.6011949682636,97.01710111662972L234.77962350238525,234.00357730900657L330.77923609985345,228.91998453479493Z" fill="#f9c9b4" stroke="#f9c9b4"/><path d="M212.6011949682636,97.01710111662972L330.77923609985345,228.91998453479493L360.2152710711756,92.21890172104311Z" fill="#f9c6af" stroke="#f9c6af"/><path d="M360.2152710711756,92.21890172104311L330.77923609985345,228.91998453479493L558.9157460396245,213.907759523616Z" fill="#fad6c5" stroke="#fad6c5"/><path d="M360.2152710711756,92.21890172104311L558.9157460396245,213.907759523616L568.6056345635443,69.37378647542323Z" fill="#fad4c2" stroke="#fad4c2"/><path d="M568.6056345635443,69.37378647542323L558.9157460396245,213.907759523616L695.0059212243316,165.1176112631246Z" fill="#fbe1d4" stroke="#fbe1d4"/><path d="M568.6056345635443,69.37378647542323L695.0059212243316,165.1176112631246L694.360547874349,39.364045490772654Z" fill="#fadacb" stroke="#fadacb"/><path d="M694.360547874349,39.364045490772654L695.0059212243316,165.1176112631246L829.0365862049152,43.71731098036146Z" fill="#f0d4c6" stroke="#f0d4c6"/><path d="M829.0365862049152,43.71731098036146L695.0059212243316,165.1176112631246L845.3394129997927,256.1317566938854Z" fill="#eadcd5" stroke="#eadcd5"/><path d="M829.0365862049152,43.71731098036146L845.3394129997927,256.1317566938854L927.3227934679039,27.489733839817315Z" fill="#e2d0c8" stroke="#e2d0c8"/><path d="M927.3227934679039,27.489733839817315L845.3394129997927,256.1317566938854L1010.942050247373,208.8148496469027Z" fill="#dbd5d3" stroke="#dbd5d3"/><path d="M927.3227934679039,27.489733839817315L1010.942050247373,208.8148496469027L1096.666795076385,94.49254860714231Z" fill="#d1c8c4" stroke="#d1c8c4"/><path d="M1096.666795076385,94.49254860714231L1010.942050247373,208.8148496469027L1085.0290926059424,221.6045960614264Z" fill="#ccced1" stroke="#ccced1"/><path d="M1096.666795076385,94.49254860714231L1085.0290926059424,221.6045960614264L1303.5560181003314,188.9921104785633Z" fill="#c1c7cc" stroke="#c1c7cc"/><path d="M1096.666795076385,94.49254860714231L1303.5560181003314,188.9921104785633L1308.3789522174138,127.73790313872293Z" fill="#b8bec3" stroke="#b8bec3"/><path d="M1308.3789522174138,127.73790313872293L1303.5560181003314,188.9921104785633L1474.260011443717,116.29989310592084Z" fill="#aab7c1" stroke="#aab7c1"/><path d="M1474.260011443717,116.29989310592084L1303.5560181003314,188.9921104785633L1392.5914187589913,278.20985763316673Z" fill="#a7bdcb" stroke="#a7bdcb"/><path d="M1474.260011443717,116.29989310592084L1392.5914187589913,278.20985763316673L1556.023938751555,127.51855639778277Z" fill="#9db5c4" stroke="#9db5c4"/><path d="M1556.023938751555,127.51855639778277L1392.5914187589913,278.20985763316673L1610.2269516435426,273.36372633840335Z" fill="#98bace" stroke="#98bace"/><path d="M1556.023938751555,127.51855639778277L1610.2269516435426,273.36372633840335L1743.3013261859935,185.25093013323615Z" fill="#8bafc4" stroke="#8bafc4"/><path d="M1556.023938751555,127.51855639778277L1743.3013261859935,185.25093013323615L1689.9839036094531,61.8289525750561Z" fill="#88a2b3" stroke="#88a2b3"/><path d="M1689.9839036094531,61.8289525750561L1743.3013261859935,185.25093013323615L1883.7845310100352,77.06022268045908Z" fill="#8099ab" stroke="#8099ab"/><path d="M1883.7845310100352,77.06022268045908L1743.3013261859935,185.25093013323615L1933.1226616953093,168.10822877561927Z" fill="#8099b1" stroke="#8099b1"/><path d="M1883.7845310100352,77.06022268045908L1933.1226616953093,168.10822877561927L1986.9205377824026,119.78184623824603Z" fill="#8091a9" stroke="#8091a9"/><path d="M1986.9205377824026,119.78184623824603L1933.1226616953093,168.10822877561927L2066.774543953526,283.12128353959565Z" fill="#8098b7" stroke="#8098b7"/><path d="M-111.72035759266032,282.51192609070677L-124.12762389546816,978.3948783959705L-91.8613490409919,562.4946257051538Z" fill="#b4a0a0" stroke="#b4a0a0"/><path d="M-111.72035759266032,282.51192609070677L-91.8613490409919,562.4946257051538L-86.99088457843423,332.6565521610334Z" fill="#e3b5a4" stroke="#e3b5a4"/><path d="M-111.72035759266032,282.51192609070677L-86.99088457843423,332.6565521610334L32.259135055161146,266.05632521845956Z" fill="#f7bfa8" stroke="#f7bfa8"/><path d="M32.259135055161146,266.05632521845956L-86.99088457843423,332.6565521610334L70.06416473280831,358.18834908330587Z" fill="#f4c4b1" stroke="#f4c4b1"/><path d="M32.259135055161146,266.05632521845956L70.06416473280831,358.18834908330587L234.77962350238525,234.00357730900657Z" fill="#f8ccba" stroke="#f8ccba"/><path d="M234.77962350238525,234.00357730900657L70.06416473280831,358.18834908330587L207.26370087280543,417.49596961440477Z" fill="#f1d0c4" stroke="#f1d0c4"/><path d="M234.77962350238525,234.00357730900657L207.26370087280543,417.49596961440477L317.62150381132176,330.98545345034063Z" fill="#f3d8ce" stroke="#f3d8ce"/><path d="M234.77962350238525,234.00357730900657L317.62150381132176,330.98545345034063L330.77923609985345,228.91998453479493Z" fill="#f9d8cb" stroke="#f9d8cb"/><path d="M330.77923609985345,228.91998453479493L317.62150381132176,330.98545345034063L513.8878708182943,410.4084191699219Z" fill="#f5e4dd" stroke="#f5e4dd"/><path d="M330.77923609985345,228.91998453479493L513.8878708182943,410.4084191699219L558.9157460396245,213.907759523616Z" fill="#faeae3" stroke="#faeae3"/><path d="M558.9157460396245,213.907759523616L513.8878708182943,410.4084191699219L728.9598789374959,322.64223635459956Z" fill="#f8f7f7" stroke="#f8f7f7"/><path d="M558.9157460396245,213.907759523616L728.9598789374959,322.64223635459956L695.0059212243316,165.1176112631246Z" fill="#f9efeb" stroke="#f9efeb"/><path d="M695.0059212243316,165.1176112631246L728.9598789374959,322.64223635459956L845.3394129997927,256.1317566938854Z" fill="#eeeceb" stroke="#eeeceb"/><path d="M845.3394129997927,256.1317566938854L728.9598789374959,322.64223635459956L841.0883223627147,382.7729032684727Z" fill="#e5f0f6" stroke="#e5f0f6"/><path d="M845.3394129997927,256.1317566938854L841.0883223627147,382.7729032684727L1007.0083136351735,370.06993228999454Z" fill="#d7e9f3" stroke="#d7e9f3"/><path d="M845.3394129997927,256.1317566938854L1007.0083136351735,370.06993228999454L1010.942050247373,208.8148496469027Z" fill="#d8e5ec" stroke="#d8e5ec"/><path d="M1010.942050247373,208.8148496469027L1007.0083136351735,370.06993228999454L1085.0290926059424,221.6045960614264Z" fill="#cfdee7" stroke="#cfdee7"/><path d="M1085.0290926059424,221.6045960614264L1007.0083136351735,370.06993228999454L1158.5191807293043,362.5224805504272Z" fill="#c6dfed" stroke="#c6dfed"/><path d="M1085.0290926059424,221.6045960614264L1158.5191807293043,362.5224805504272L1303.5560181003314,188.9921104785633Z" fill="#bed3e0" stroke="#bed3e0"/><path d="M1303.5560181003314,188.9921104785633L1158.5191807293043,362.5224805504272L1392.5914187589913,278.20985763316673Z" fill="#b3d0e1" stroke="#b3d0e1"/><path d="M1392.5914187589913,278.20985763316673L1158.5191807293043,362.5224805504272L1321.040750125094,424.7537662631445Z" fill="#a7cfe6" stroke="#a7cfe6"/><path d="M1392.5914187589913,278.20985763316673L1321.040750125094,424.7537662631445L1441.551210735316,344.0574198874423Z" fill="#9dcae3" stroke="#9dcae3"/><path d="M1392.5914187589913,278.20985763316673L1441.551210735316,344.0574198874423L1610.2269516435426,273.36372633840335Z" fill="#9dc7e0" stroke="#9dc7e0"/><path d="M1610.2269516435426,273.36372633840335L1441.551210735316,344.0574198874423L1537.7146223641696,423.0907446313937Z" fill="#8ec1df" stroke="#8ec1df"/><path d="M1610.2269516435426,273.36372633840335L1537.7146223641696,423.0907446313937L1733.9574075895644,417.8769431523016Z" fill="#7db9db" stroke="#7db9db"/><path d="M1610.2269516435426,273.36372633840335L1733.9574075895644,417.8769431523016L1743.3013261859935,185.25093013323615Z" fill="#84b9d8" stroke="#84b9d8"/><path d="M1743.3013261859935,185.25093013323615L1733.9574075895644,417.8769431523016L1862.151226901898,318.0469725008242Z" fill="#7fb5d8" stroke="#7fb5d8"/><path d="M1743.3013261859935,185.25093013323615L1862.151226901898,318.0469725008242L1933.1226616953093,168.10822877561927Z" fill="#80a6c4" stroke="#80a6c4"/><path d="M1933.1226616953093,168.10822877561927L1862.151226901898,318.0469725008242L2066.774543953526,283.12128353959565Z" fill="#80a4c8" stroke="#80a4c8"/><path d="M2066.774543953526,283.12128353959565L1862.151226901898,318.0469725008242L1967.1778560139444,423.9029350606022Z" fill="#77a7d1" stroke="#77a7d1"/><path d="M2066.774543953526,283.12128353959565L1967.1778560139444,423.9029350606022L2067.9033603950015,475.8678471399509Z" fill="#6c9ecf" stroke="#6c9ecf"/><path d="M-86.99088457843423,332.6565521610334L-91.8613490409919,562.4946257051538L70.06416473280831,358.18834908330587Z" fill="#deb7ab" stroke="#deb7ab"/><path d="M70.06416473280831,358.18834908330587L-91.8613490409919,562.4946257051538L105.85009815232237,582.4299668490696Z" fill="#ccb6b2" stroke="#ccb6b2"/><path d="M70.06416473280831,358.18834908330587L105.85009815232237,582.4299668490696L207.26370087280543,417.49596961440477Z" fill="#d8c2be" stroke="#d8c2be"/><path d="M207.26370087280543,417.49596961440477L105.85009815232237,582.4299668490696L242.43655794213674,553.9246228833517Z" fill="#c9c2c3" stroke="#c9c2c3"/><path d="M207.26370087280543,417.49596961440477L242.43655794213674,553.9246228833517L319.56475423942663,535.3468797517312Z" fill="#cdc9cc" stroke="#cdc9cc"/><path d="M207.26370087280543,417.49596961440477L319.56475423942663,535.3468797517312L317.62150381132176,330.98545345034063Z" fill="#ded2d0" stroke="#ded2d0"/><path d="M317.62150381132176,330.98545345034063L319.56475423942663,535.3468797517312L472.8104560021304,478.3169567033042Z" fill="#dad7da" stroke="#dad7da"/><path d="M317.62150381132176,330.98545345034063L472.8104560021304,478.3169567033042L513.8878708182943,410.4084191699219Z" fill="#e3e0e2" stroke="#e3e0e2"/><path d="M513.8878708182943,410.4084191699219L472.8104560021304,478.3169567033042L709.8295380672658,577.7361508245328Z" fill="#d2e4f0" stroke="#d2e4f0"/><path d="M513.8878708182943,410.4084191699219L709.8295380672658,577.7361508245328L728.9598789374959,322.64223635459956Z" fill="#ddeff9" stroke="#ddeff9"/><path d="M728.9598789374959,322.64223635459956L709.8295380672658,577.7361508245328L812.8216322572744,467.7866458241797Z" fill="#cde7f6" stroke="#cde7f6"/><path d="M728.9598789374959,322.64223635459956L812.8216322572744,467.7866458241797L841.0883223627147,382.7729032684727Z" fill="#d6eaf5" stroke="#d6eaf5"/><path d="M841.0883223627147,382.7729032684727L812.8216322572744,467.7866458241797L1008.9982628396846,496.1681567187039Z" fill="#bfdff2" stroke="#bfdff2"/><path d="M841.0883223627147,382.7729032684727L1008.9982628396846,496.1681567187039L1007.0083136351735,370.06993228999454Z" fill="#bfdef0" stroke="#bfdef0"/><path d="M1007.0083136351735,370.06993228999454L1008.9982628396846,496.1681567187039L1098.5472786897024,512.2091211405963Z" fill="#acd5ed" stroke="#acd5ed"/><path d="M1007.0083136351735,370.06993228999454L1098.5472786897024,512.2091211405963L1158.5191807293043,362.5224805504272Z" fill="#b0d6ec" stroke="#b0d6ec"/><path d="M1158.5191807293043,362.5224805504272L1098.5472786897024,512.2091211405963L1234.4448562162736,574.96841965766Z" fill="#99cbe8" stroke="#99cbe8"/><path d="M1158.5191807293043,362.5224805504272L1234.4448562162736,574.96841965766L1321.040750125094,424.7537662631445Z" fill="#97c9e7" stroke="#97c9e7"/><path d="M1321.040750125094,424.7537662631445L1234.4448562162736,574.96841965766L1473.3037962891833,519.3648759198122Z" fill="#80bee3" stroke="#80bee3"/><path d="M1321.040750125094,424.7537662631445L1473.3037962891833,519.3648759198122L1441.551210735316,344.0574198874423Z" fill="#89c1e2" stroke="#89c1e2"/><path d="M1441.551210735316,344.0574198874423L1473.3037962891833,519.3648759198122L1537.7146223641696,423.0907446313937Z" fill="#81bcdf" stroke="#81bcdf"/><path d="M1537.7146223641696,423.0907446313937L1473.3037962891833,519.3648759198122L1586.535869528675,525.4468639956851Z" fill="#6eb4dd" stroke="#6eb4dd"/><path d="M1537.7146223641696,423.0907446313937L1586.535869528675,525.4468639956851L1733.9574075895644,417.8769431523016Z" fill="#6cb2db" stroke="#6cb2db"/><path d="M1733.9574075895644,417.8769431523016L1586.535869528675,525.4468639956851L1716.094757720896,541.2290749164207Z" fill="#5cabd8" stroke="#5cabd8"/><path d="M1733.9574075895644,417.8769431523016L1716.094757720896,541.2290749164207L1842.9783769577045,495.53900808323675Z" fill="#58a6d6" stroke="#58a6d6"/><path d="M1733.9574075895644,417.8769431523016L1842.9783769577045,495.53900808323675L1862.151226901898,318.0469725008242Z" fill="#68aad5" stroke="#68aad5"/><path d="M1862.151226901898,318.0469725008242L1842.9783769577045,495.53900808323675L1967.1778560139444,423.9029350606022Z" fill="#68a5d3" stroke="#68a5d3"/><path d="M1967.1778560139444,423.9029350606022L1842.9783769577045,495.53900808323675L2067.9033603950015,475.8678471399509Z" fill="#5c9cd0" stroke="#5c9cd0"/><path d="M-91.8613490409919,562.4946257051538L-124.12762389546816,978.3948783959705L-93.58657881319962,840.3859876989181Z" fill="#8c909e" stroke="#8c909e"/><path d="M-91.8613490409919,562.4946257051538L-93.58657881319962,840.3859876989181L-45.106400068786144,718.520004208335Z" fill="#9f9aa2" stroke="#9f9aa2"/><path d="M-91.8613490409919,562.4946257051538L-45.106400068786144,718.520004208335L105.85009815232237,582.4299668490696Z" fill="#b2a7ac" stroke="#b2a7ac"/><path d="M105.85009815232237,582.4299668490696L-45.106400068786144,718.520004208335L107.09770099441646,654.9888069382409Z" fill="#acabb3" stroke="#acabb3"/><path d="M105.85009815232237,582.4299668490696L107.09770099441646,654.9888069382409L242.43655794213674,553.9246228833517Z" fill="#b8b7be" stroke="#b8b7be"/><path d="M242.43655794213674,553.9246228833517L107.09770099441646,654.9888069382409L171.49003510625715,719.4133331596554Z" fill="#aeb5c0" stroke="#aeb5c0"/><path d="M242.43655794213674,553.9246228833517L171.49003510625715,719.4133331596554L361.11560429805365,696.5294001138717Z" fill="#acbbca" stroke="#acbbca"/><path d="M242.43655794213674,553.9246228833517L361.11560429805365,696.5294001138717L319.56475423942663,535.3468797517312Z" fill="#b9c5d1" stroke="#b9c5d1"/><path d="M319.56475423942663,535.3468797517312L361.11560429805365,696.5294001138717L472.8104560021304,478.3169567033042Z" fill="#bfcdda" stroke="#bfcdda"/><path d="M472.8104560021304,478.3169567033042L361.11560429805365,696.5294001138717L540.4833324926178,646.4269400666936Z" fill="#b8d1e2" stroke="#b8d1e2"/><path d="M472.8104560021304,478.3169567033042L540.4833324926178,646.4269400666936L709.8295380672658,577.7361508245328Z" fill="#c1def0" stroke="#c1def0"/><path d="M709.8295380672658,577.7361508245328L540.4833324926178,646.4269400666936L676.2442223338851,639.7525231826129Z" fill="#b6dff7" stroke="#b6dff7"/><path d="M709.8295380672658,577.7361508245328L676.2442223338851,639.7525231826129L770.4335312357442,712.2104804373762Z" fill="#a8d8f4" stroke="#a8d8f4"/><path d="M709.8295380672658,577.7361508245328L770.4335312357442,712.2104804373762L812.8216322572744,467.7866458241797Z" fill="#afdaf4" stroke="#afdaf4"/><path d="M812.8216322572744,467.7866458241797L770.4335312357442,712.2104804373762L940.7079770853292,727.154854358204Z" fill="#9cd1f0" stroke="#9cd1f0"/><path d="M812.8216322572744,467.7866458241797L940.7079770853292,727.154854358204L1008.9982628396846,496.1681567187039Z" fill="#a3d3ef" stroke="#a3d3ef"/><path d="M1008.9982628396846,496.1681567187039L940.7079770853292,727.154854358204L1098.5472786897024,512.2091211405963Z" fill="#95ccec" stroke="#95ccec"/><path d="M1098.5472786897024,512.2091211405963L940.7079770853292,727.154854358204L1178.9437717977332,615.9383496748865Z" fill="#86c5ea" stroke="#86c5ea"/><path d="M1098.5472786897024,512.2091211405963L1178.9437717977332,615.9383496748865L1234.4448562162736,574.96841965766Z" fill="#86c3e7" stroke="#86c3e7"/><path d="M1234.4448562162736,574.96841965766L1178.9437717977332,615.9383496748865L1268.4269587156275,713.0792426776045Z" fill="#71bae4" stroke="#71bae4"/><path d="M1234.4448562162736,574.96841965766L1268.4269587156275,713.0792426776045L1447.1880340851894,632.1840544144452Z" fill="#66b4e2" stroke="#66b4e2"/><path d="M1234.4448562162736,574.96841965766L1447.1880340851894,632.1840544144452L1473.3037962891833,519.3648759198122Z" fill="#6cb5e0" stroke="#6cb5e0"/><path d="M1473.3037962891833,519.3648759198122L1447.1880340851894,632.1840544144452L1586.535869528675,525.4468639956851Z" fill="#62b0dd" stroke="#62b0dd"/><path d="M1586.535869528675,525.4468639956851L1447.1880340851894,632.1840544144452L1581.7062485757829,723.2584681280974Z" fill="#50a7db" stroke="#50a7db"/><path d="M1586.535869528675,525.4468639956851L1581.7062485757829,723.2584681280974L1716.094757720896,541.2290749164207Z" fill="#4ca5d8" stroke="#4ca5d8"/><path d="M1716.094757720896,541.2290749164207L1581.7062485757829,723.2584681280974L1756.5088122014292,636.2624268031317Z" fill="#3e9ed6" stroke="#3e9ed6"/><path d="M1716.094757720896,541.2290749164207L1756.5088122014292,636.2624268031317L1842.9783769577045,495.53900808323675Z" fill="#48a0d4" stroke="#48a0d4"/><path d="M1842.9783769577045,495.53900808323675L1756.5088122014292,636.2624268031317L1840.7651143178114,702.6035783800164Z" fill="#3c98d3" stroke="#3c98d3"/><path d="M1842.9783769577045,495.53900808323675L1840.7651143178114,702.6035783800164L2036.8491764989528,688.1771654701556Z" fill="#3991cf" stroke="#3991cf"/><path d="M1842.9783769577045,495.53900808323675L2036.8491764989528,688.1771654701556L2067.9033603950015,475.8678471399509Z" fill="#4993ce" stroke="#4993ce"/><path d="M2067.9033603950015,475.8678471399509L2036.8491764989528,688.1771654701556L2054.7820305980445,788.5966333241527Z" fill="#3486cb" stroke="#3486cb"/><path d="M-45.106400068786144,718.520004208335L-93.58657881319962,840.3859876989181L49.557061670586634,818.5220735027052Z" fill="#8c97a7" stroke="#8c97a7"/><path d="M-45.106400068786144,718.520004208335L49.557061670586634,818.5220735027052L107.09770099441646,654.9888069382409Z" fill="#9aa2b0" stroke="#9aa2b0"/><path d="M107.09770099441646,654.9888069382409L49.557061670586634,818.5220735027052L171.49003510625715,719.4133331596554Z" fill="#9aa8b8" stroke="#9aa8b8"/><path d="M171.49003510625715,719.4133331596554L49.557061670586634,818.5220735027052L229.33112464853832,772.5484584864431Z" fill="#92a8bc" stroke="#92a8bc"/><path d="M171.49003510625715,719.4133331596554L229.33112464853832,772.5484584864431L361.11560429805365,696.5294001138717Z" fill="#9cb4c9" stroke="#9cb4c9"/><path d="M361.11560429805365,696.5294001138717L229.33112464853832,772.5484584864431L398.62303277002866,849.6452865759113Z" fill="#93b7d1" stroke="#93b7d1"/><path d="M361.11560429805365,696.5294001138717L398.62303277002866,849.6452865759113L540.4833324926178,646.4269400666936Z" fill="#9cc4de" stroke="#9cc4de"/><path d="M540.4833324926178,646.4269400666936L398.62303277002866,849.6452865759113L565.3050473643863,840.2159756798808Z" fill="#92c5e5" stroke="#92c5e5"/><path d="M540.4833324926178,646.4269400666936L565.3050473643863,840.2159756798808L676.2442223338851,639.7525231826129Z" fill="#a2d3f0" stroke="#a2d3f0"/><path d="M676.2442223338851,639.7525231826129L565.3050473643863,840.2159756798808L714.6862693625652,844.0968436203897Z" fill="#93d1f5" stroke="#93d1f5"/><path d="M676.2442223338851,639.7525231826129L714.6862693625652,844.0968436203897L770.4335312357442,712.2104804373762Z" fill="#95d0f3" stroke="#95d0f3"/><path d="M770.4335312357442,712.2104804373762L714.6862693625652,844.0968436203897L880.4256307454511,831.5635334354165Z" fill="#7fc6f0" stroke="#7fc6f0"/><path d="M770.4335312357442,712.2104804373762L880.4256307454511,831.5635334354165L940.7079770853292,727.154854358204Z" fill="#7fc5ee" stroke="#7fc5ee"/><path d="M940.7079770853292,727.154854358204L880.4256307454511,831.5635334354165L945.1669194826756,779.8407010124089Z" fill="#74c0ec" stroke="#74c0ec"/><path d="M940.7079770853292,727.154854358204L945.1669194826756,779.8407010124089L1153.6448126663868,871.0337210608308Z" fill="#66b9e9" stroke="#66b9e9"/><path d="M940.7079770853292,727.154854358204L1153.6448126663868,871.0337210608308L1178.9437717977332,615.9383496748865Z" fill="#6ab9e7" stroke="#6ab9e7"/><path d="M1178.9437717977332,615.9383496748865L1153.6448126663868,871.0337210608308L1268.4269587156275,713.0792426776045Z" fill="#5eb3e4" stroke="#5eb3e4"/><path d="M1268.4269587156275,713.0792426776045L1153.6448126663868,871.0337210608308L1251.6564027003028,847.9233872752702Z" fill="#4aaae2" stroke="#4aaae2"/><path d="M1268.4269587156275,713.0792426776045L1251.6564027003028,847.9233872752702L1366.24455581039,825.4829999997892Z" fill="#46a7e0" stroke="#46a7e0"/><path d="M1268.4269587156275,713.0792426776045L1366.24455581039,825.4829999997892L1447.1880340851894,632.1840544144452Z" fill="#4eaadf" stroke="#4eaadf"/><path d="M1447.1880340851894,632.1840544144452L1366.24455581039,825.4829999997892L1522.220703253174,853.252368269513Z" fill="#3ba1dc" stroke="#3ba1dc"/><path d="M1447.1880340851894,632.1840544144452L1522.220703253174,853.252368269513L1581.7062485757829,723.2584681280974Z" fill="#3a9fda" stroke="#3a9fda"/><path d="M1581.7062485757829,723.2584681280974L1522.220703253174,853.252368269513L1708.6640554923251,811.171435792764Z" fill="#2394d7" stroke="#2394d7"/><path d="M1581.7062485757829,723.2584681280974L1708.6640554923251,811.171435792764L1756.5088122014292,636.2624268031317Z" fill="#2a96d5" stroke="#2a96d5"/><path d="M1756.5088122014292,636.2624268031317L1708.6640554923251,811.171435792764L1840.7651143178114,702.6035783800164Z" fill="#2591d2" stroke="#2591d2"/><path d="M1840.7651143178114,702.6035783800164L1708.6640554923251,811.171435792764L1831.545121939373,812.8481217738283Z" fill="#198bd1" stroke="#198bd1"/><path d="M1840.7651143178114,702.6035783800164L1831.545121939373,812.8481217738283L2054.7820305980445,788.5966333241527Z" fill="#1a84ce" stroke="#1a84ce"/><path d="M1840.7651143178114,702.6035783800164L2054.7820305980445,788.5966333241527L2036.8491764989528,688.1771654701556Z" fill="#2384cc" stroke="#2384cc"/><path d="M-93.58657881319962,840.3859876989181L-124.12762389546816,978.3948783959705L72.14900934138257,964.0085379210918Z" fill="#7789a3" stroke="#7789a3"/><path d="M-93.58657881319962,840.3859876989181L72.14900934138257,964.0085379210918L49.557061670586634,818.5220735027052Z" fill="#7b93aa" stroke="#7b93aa"/><path d="M49.557061670586634,818.5220735027052L72.14900934138257,964.0085379210918L229.33112464853832,772.5484584864431Z" fill="#809eb7" stroke="#809eb7"/><path d="M229.33112464853832,772.5484584864431L72.14900934138257,964.0085379210918L232.45941318634166,1001.1259210474685Z" fill="#799dbd" stroke="#799dbd"/><path d="M229.33112464853832,772.5484584864431L232.45941318634166,1001.1259210474685L333.81288571435687,997.0277252258713Z" fill="#79a4c8" stroke="#79a4c8"/><path d="M229.33112464853832,772.5484584864431L333.81288571435687,997.0277252258713L398.62303277002866,849.6452865759113Z" fill="#7dadcf" stroke="#7dadcf"/><path d="M398.62303277002866,849.6452865759113L333.81288571435687,997.0277252258713L494.80168469194535,937.0402799540615Z" fill="#7ab0d8" stroke="#7ab0d8"/><path d="M398.62303277002866,849.6452865759113L494.80168469194535,937.0402799540615L565.3050473643863,840.2159756798808Z" fill="#7dbbe2" stroke="#7dbbe2"/><path d="M565.3050473643863,840.2159756798808L494.80168469194535,937.0402799540615L713.2795127998803,923.1257072967745Z" fill="#7bc2ee" stroke="#7bc2ee"/><path d="M565.3050473643863,840.2159756798808L713.2795127998803,923.1257072967745L714.6862693625652,844.0968436203897Z" fill="#7dc7f3" stroke="#7dc7f3"/><path d="M714.6862693625652,844.0968436203897L713.2795127998803,923.1257072967745L835.1471323340968,939.1585410418032Z" fill="#6fbff0" stroke="#6fbff0"/><path d="M714.6862693625652,844.0968436203897L835.1471323340968,939.1585410418032L880.4256307454511,831.5635334354165Z" fill="#6cbeee" stroke="#6cbeee"/><path d="M880.4256307454511,831.5635334354165L835.1471323340968,939.1585410418032L1018.7985098937314,917.8117330255709Z" fill="#5db6eb" stroke="#5db6eb"/><path d="M880.4256307454511,831.5635334354165L1018.7985098937314,917.8117330255709L945.1669194826756,779.8407010124089Z" fill="#63b8eb" stroke="#63b8eb"/><path d="M945.1669194826756,779.8407010124089L1018.7985098937314,917.8117330255709L1153.6448126663868,871.0337210608308Z" fill="#56b1e7" stroke="#56b1e7"/><path d="M1153.6448126663868,871.0337210608308L1018.7985098937314,917.8117330255709L1084.8455124240274,940.9865457236505Z" fill="#4aaae5" stroke="#4aaae5"/><path d="M1153.6448126663868,871.0337210608308L1084.8455124240274,940.9865457236505L1276.562923965966,1016.2065362360734Z" fill="#40a2e2" stroke="#40a2e2"/><path d="M1153.6448126663868,871.0337210608308L1276.562923965966,1016.2065362360734L1251.6564027003028,847.9233872752702Z" fill="#3aa1e1" stroke="#3aa1e1"/><path d="M1251.6564027003028,847.9233872752702L1276.562923965966,1016.2065362360734L1380.8521752759393,981.5665382731145Z" fill="#3199de" stroke="#3199de"/><path d="M1251.6564027003028,847.9233872752702L1380.8521752759393,981.5665382731145L1366.24455581039,825.4829999997892Z" fill="#2e9dde" stroke="#2e9dde"/><path d="M1366.24455581039,825.4829999997892L1380.8521752759393,981.5665382731145L1522.220703253174,853.252368269513Z" fill="#2498db" stroke="#2498db"/><path d="M1522.220703253174,853.252368269513L1380.8521752759393,981.5665382731145L1524.559775423483,957.2693416960115Z" fill="#1e90d9" stroke="#1e90d9"/><path d="M1522.220703253174,853.252368269513L1524.559775423483,957.2693416960115L1708.6640554923251,811.171435792764Z" fill="#148fd6" stroke="#148fd6"/><path d="M1708.6640554923251,811.171435792764L1524.559775423483,957.2693416960115L1683.2287998025427,1017.4563978317882Z" fill="#0b86d4" stroke="#0b86d4"/><path d="M1708.6640554923251,811.171435792764L1683.2287998025427,1017.4563978317882L1831.545121939373,812.8481217738283Z" fill="#0285d1" stroke="#0285d1"/><path d="M1831.545121939373,812.8481217738283L1683.2287998025427,1017.4563978317882L1909.7070158053014,926.2804674125318Z" fill="#007dcf" stroke="#007dcf"/><path d="M1831.545121939373,812.8481217738283L1909.7070158053014,926.2804674125318L2054.7820305980445,788.5966333241527Z" fill="#0a7dcc" stroke="#0a7dcc"/><path d="M2054.7820305980445,788.5966333241527L1909.7070158053014,926.2804674125318L1983.757077826081,1030.6884410025896Z" fill="#0073c9" stroke="#0073c9"/><path d="M2054.7820305980445,788.5966333241527L1983.757077826081,1030.6884410025896L1994.0647321911395,1101.7254682790215Z" fill="#006cc7" stroke="#006cc7"/><path d="M-124.12762389546816,978.3948783959705L-39.43918005018864,1112.2677212434407L72.14900934138257,964.0085379210918Z" fill="#7882a4" stroke="#7882a4"/><path d="M72.14900934138257,964.0085379210918L-39.43918005018864,1112.2677212434407L99.80474047065591,1074.2202501938398Z" fill="#7886ac" stroke="#7886ac"/><path d="M72.14900934138257,964.0085379210918L99.80474047065591,1074.2202501938398L232.45941318634166,1001.1259210474685Z" fill="#7991b7" stroke="#7991b7"/><path d="M232.45941318634166,1001.1259210474685L99.80474047065591,1074.2202501938398L256.2755739462642,1158.900790389964Z" fill="#7990be" stroke="#7990be"/><path d="M232.45941318634166,1001.1259210474685L256.2755739462642,1158.900790389964L333.81288571435687,997.0277252258713Z" fill="#7999c7" stroke="#7999c7"/><path d="M333.81288571435687,997.0277252258713L256.2755739462642,1158.900790389964L400.3567598142642,1097.6009150445682Z" fill="#7a9bcd" stroke="#7a9bcd"/><path d="M333.81288571435687,997.0277252258713L400.3567598142642,1097.6009150445682L494.80168469194535,937.0402799540615Z" fill="#7aa9d7" stroke="#7aa9d7"/><path d="M494.80168469194535,937.0402799540615L400.3567598142642,1097.6009150445682L539.6474081854786,1097.96370982652Z" fill="#7babde" stroke="#7babde"/><path d="M494.80168469194535,937.0402799540615L539.6474081854786,1097.96370982652L713.2795127998803,923.1257072967745Z" fill="#7bb9ec" stroke="#7bb9ec"/><path d="M713.2795127998803,923.1257072967745L539.6474081854786,1097.96370982652L642.6480123644131,1125.5370283872846Z" fill="#7cb8f0" stroke="#7cb8f0"/><path d="M713.2795127998803,923.1257072967745L642.6480123644131,1125.5370283872846L787.9704617855612,1173.851459711567Z" fill="#73b2ef" stroke="#73b2ef"/><path d="M713.2795127998803,923.1257072967745L787.9704617855612,1173.851459711567L835.1471323340968,939.1585410418032Z" fill="#6cb3ed" stroke="#6cb3ed"/><path d="M835.1471323340968,939.1585410418032L787.9704617855612,1173.851459711567L948.1071515150672,1100.7536720364906Z" fill="#63aaea" stroke="#63aaea"/><path d="M835.1471323340968,939.1585410418032L948.1071515150672,1100.7536720364906L1018.7985098937314,917.8117330255709Z" fill="#5bace9" stroke="#5bace9"/><path d="M1018.7985098937314,917.8117330255709L948.1071515150672,1100.7536720364906L1084.8455124240274,940.9865457236505Z" fill="#51a7e6" stroke="#51a7e6"/><path d="M1084.8455124240274,940.9865457236505L948.1071515150672,1100.7536720364906L1160.0836404017332,1155.6226875395917Z" fill="#4c9de4" stroke="#4c9de4"/><path d="M1084.8455124240274,940.9865457236505L1160.0836404017332,1155.6226875395917L1276.562923965966,1016.2065362360734Z" fill="#4099e1" stroke="#4099e1"/><path d="M1276.562923965966,1016.2065362360734L1160.0836404017332,1155.6226875395917L1315.344768046418,1070.0066150093992Z" fill="#3791de" stroke="#3791de"/><path d="M1276.562923965966,1016.2065362360734L1315.344768046418,1070.0066150093992L1380.8521752759393,981.5665382731145Z" fill="#2f92dc" stroke="#2f92dc"/><path d="M1380.8521752759393,981.5665382731145L1315.344768046418,1070.0066150093992L1421.3839057052,1109.976456780101Z" fill="#298cda" stroke="#298cda"/><path d="M1380.8521752759393,981.5665382731145L1421.3839057052,1109.976456780101L1524.559775423483,957.2693416960115Z" fill="#218bd9" stroke="#218bd9"/><path d="M1524.559775423483,957.2693416960115L1421.3839057052,1109.976456780101L1615.692510756926,1168.3128720215493Z" fill="#1981d5" stroke="#1981d5"/><path d="M1524.559775423483,957.2693416960115L1615.692510756926,1168.3128720215493L1683.2287998025427,1017.4563978317882Z" fill="#0f7ed3" stroke="#0f7ed3"/><path d="M1683.2287998025427,1017.4563978317882L1615.692510756926,1168.3128720215493L1690.7307428475613,1094.1068829882888Z" fill="#0976d1" stroke="#0976d1"/><path d="M1683.2287998025427,1017.4563978317882L1690.7307428475613,1094.1068829882888L1863.3231606037446,1121.4276547119475Z" fill="#0073cf" stroke="#0073cf"/><path d="M1683.2287998025427,1017.4563978317882L1863.3231606037446,1121.4276547119475L1909.7070158053014,926.2804674125318Z" fill="#0073cd" stroke="#0073cd"/><path d="M1909.7070158053014,926.2804674125318L1863.3231606037446,1121.4276547119475L1983.757077826081,1030.6884410025896Z" fill="#006dca" stroke="#006dca"/><path d="M1983.757077826081,1030.6884410025896L1863.3231606037446,1121.4276547119475L1994.0647321911395,1101.7254682790215Z" fill="#0066c8" stroke="#0066c8"/><path d="M-39.43918005018864,1112.2677212434407L256.2755739462642,1158.900790389964L99.80474047065591,1074.2202501938398Z" fill="#7885b3" stroke="#7885b3"/><path d="M256.2755739462642,1158.900790389964L787.9704617855612,1173.851459711567L642.6480123644131,1125.5370283872846Z" fill="#7ba9e7" stroke="#7ba9e7"/><path d="M256.2755739462642,1158.900790389964L642.6480123644131,1125.5370283872846L539.6474081854786,1097.96370982652Z" fill="#7ba4de" stroke="#7ba4de"/><path d="M256.2755739462642,1158.900790389964L539.6474081854786,1097.96370982652L400.3567598142642,1097.6009150445682Z" fill="#7a9ed4" stroke="#7a9ed4"/><path d="M787.9704617855612,1173.851459711567L1615.692510756926,1168.3128720215493L1160.0836404017332,1155.6226875395917Z" fill="#3e8ddf" stroke="#3e8ddf"/><path d="M787.9704617855612,1173.851459711567L1160.0836404017332,1155.6226875395917L948.1071515150672,1100.7536720364906Z" fill="#579ce6" stroke="#579ce6"/><path d="M1160.0836404017332,1155.6226875395917L1615.692510756926,1168.3128720215493L1421.3839057052,1109.976456780101Z" fill="#2682d9" stroke="#2682d9"/><path d="M1160.0836404017332,1155.6226875395917L1421.3839057052,1109.976456780101L1315.344768046418,1070.0066150093992Z" fill="#328bdc" stroke="#328bdc"/><path d="M1615.692510756926,1168.3128720215493L1994.0647321911395,1101.7254682790215L1863.3231606037446,1121.4276547119475Z" fill="#0069cb" stroke="#0069cb"/><path d="M1615.692510756926,1168.3128720215493L1863.3231606037446,1121.4276547119475L1690.7307428475613,1094.1068829882888Z" fill="#0270ce" stroke="#0270ce"/></g></svg>