<?xml version="1.0" encoding="utf-8"?>
<!-- Generator: Adobe Illustrator 16.0.0, SVG Export Plug-In . SVG Version: 6.00 Build 0)  -->
<!DOCTYPE svg PUBLIC "-//W3C//DTD SVG 1.1//EN" "http://www.w3.org/Graphics/SVG/1.1/DTD/svg11.dtd">
<svg version="1.1" id="Logo" xmlns="http://www.w3.org/2000/svg" xmlns:xlink="http://www.w3.org/1999/xlink" x="0px" y="0px"
	 width="2048px" height="2048px" viewBox="0 0 2048 2048" enable-background="new 0 0 2048 2048" xml:space="preserve">
<g>
	<path fill="#222222" d="M1953.719,832.664c-12.461-60.897-31.055-120.796-55.266-178.035
		c-23.776-56.216-53.211-110.442-87.483-161.172c-33.96-50.267-72.963-97.539-115.926-140.501
		c-42.963-42.963-90.234-81.966-140.502-115.926c-50.729-34.272-104.956-63.706-161.172-87.483
		c-57.238-24.21-117.138-42.804-178.034-55.265C1152.813,81.487,1088.438,75,1024,75s-128.813,6.487-191.336,19.281
		c-60.897,12.461-120.796,31.055-178.035,55.265c-56.216,23.777-110.442,53.211-161.172,87.483
		c-50.267,33.96-97.539,72.963-140.501,115.926S270.99,443.19,237.03,493.457c-34.272,50.73-63.706,104.956-87.483,161.172
		c-24.21,57.238-42.804,117.138-55.265,178.035C81.487,895.188,75,959.563,75,1024s6.487,128.813,19.281,191.336
		c12.461,60.896,31.055,120.796,55.265,178.034c23.777,56.216,53.211,110.442,87.483,161.172
		c33.96,50.268,72.963,97.539,115.926,140.502c42.962,42.963,90.234,81.966,140.501,115.926
		c50.73,34.272,104.956,63.707,161.172,87.483c57.238,24.211,117.138,42.805,178.035,55.266
		C895.188,1966.513,959.563,1973,1024,1973s128.813-6.487,191.336-19.281c60.896-12.461,120.796-31.055,178.034-55.266
		c56.216-23.776,110.442-53.211,161.172-87.483c50.268-33.96,97.539-72.963,140.502-115.926s81.966-90.234,115.926-140.502
		c34.272-50.729,63.707-104.956,87.483-161.172c24.211-57.238,42.805-117.138,55.266-178.034
		C1966.513,1152.813,1973,1088.438,1973,1024S1966.513,895.188,1953.719,832.664z"/>
	<path fill="#DDDDDD" d="M1024,0C458.46,0,0,458.46,0,1024s458.46,1024,1024,1024s1024-458.461,1024-1024S1589.539,0,1024,0z
		 M1810.97,1554.542c-33.96,50.268-72.963,97.539-115.926,140.502s-90.234,81.966-140.502,115.926
		c-50.729,34.272-104.956,63.707-161.172,87.483c-57.238,24.211-117.138,42.805-178.034,55.266
		C1152.813,1966.513,1088.438,1973,1024,1973s-128.813-6.487-191.336-19.281c-60.897-12.461-120.796-31.055-178.035-55.266
		c-56.216-23.776-110.442-53.211-161.172-87.483c-50.267-33.96-97.539-72.963-140.501-115.926
		c-42.963-42.963-81.966-90.234-115.926-140.502c-34.272-50.729-63.706-104.956-87.483-161.172
		c-24.21-57.238-42.804-117.138-55.265-178.034C81.487,1152.813,75,1088.438,75,1024s6.487-128.813,19.281-191.336
		c12.461-60.897,31.055-120.796,55.265-178.035c23.777-56.216,53.211-110.442,87.483-161.172
		c33.96-50.267,72.963-97.539,115.926-140.501S443.19,270.99,493.457,237.03c50.73-34.272,104.956-63.706,161.172-87.483
		c57.238-24.21,117.138-42.804,178.035-55.265C895.188,81.487,959.563,75,1024,75s128.813,6.487,191.336,19.281
		c60.896,12.461,120.796,31.055,178.034,55.265c56.216,23.777,110.442,53.211,161.172,87.483
		c50.268,33.96,97.539,72.963,140.502,115.926c42.963,42.962,81.966,90.234,115.926,140.501
		c34.272,50.73,63.707,104.956,87.483,161.172c24.211,57.238,42.805,117.138,55.266,178.035
		C1966.513,895.188,1973,959.563,1973,1024s-6.487,128.813-19.281,191.336c-12.461,60.896-31.055,120.796-55.266,178.034
		C1874.677,1449.586,1845.242,1503.813,1810.97,1554.542z"/>
</g>
<g id="P">
	<path fill="#DDDDDD" d="M1513.236,823.165c-6.593,53.664-21.578,102.851-44.958,147.56c-23.358,44.7-54.909,83.158-94.652,115.369
		c-39.756,32.212-87.541,57.249-143.357,75.116c-55.825,17.883-119.772,26.823-191.847,26.823H901.631l-29.25,238.227
		c18.685,3.373,33.424,6.05,44.219,8.028c10.796,1.979,18.229,3.351,22.298,4.115c4.07,0.766,7.206,1.347,9.404,1.744
		c24.911,5.476,35.736,21.456,32.476,47.945l-11.065,90.117h-115.99H647.527H531.395l11.065-90.117
		c3.244-26.485,17.994-42.468,44.249-47.945c2.282-0.396,5.562-0.978,9.837-1.744c4.276-0.769,12.061-2.142,23.35-4.12
		c11.291-1.979,26.721-4.658,46.29-8.037l98.779-804.49c-18.738-3.395-33.512-6.075-44.321-8.039
		c-10.808-1.98-18.25-3.353-22.328-4.119c-4.075-0.796-7.212-1.378-9.414-1.746c-24.91-5.475-35.735-21.456-32.475-47.945
		l11.064-90.118h116.133h342.969c74.086,0,137.152,8.687,189.201,26.062c52.032,17.378,93.767,41.652,125.202,72.82
		c31.435,31.175,52.917,68.48,64.445,111.915C1516.972,724.023,1519.57,771.549,1513.236,823.165z M1307.035,823.157
		c3.639-29.628,2.335-56.458-3.91-80.487c-6.263-24.032-17.555-44.472-33.874-61.323c-16.32-16.851-37.987-29.754-64.997-38.708
		c-27.037-8.951-59.446-13.423-97.229-13.416H970.237l-48.849,397.835h136.775c37.83,0,71.375-4.73,100.632-14.187
		c29.249-9.45,54.162-22.992,74.737-40.624c20.552-17.612,36.987-39.074,49.31-64.386
		C1295.141,882.57,1303.205,854.334,1307.035,823.157z"/>
</g>
<g>
</g>
<g>
</g>
<g>
</g>
<g>
</g>
<g>
</g>
<g>
</g>
</svg>
