<?xml version="1.0" encoding="utf-8"?>
<!-- Generator: Adobe Illustrator 16.0.0, SVG Export Plug-In . SVG Version: 6.00 Build 0)  -->
<!DOCTYPE svg PUBLIC "-//W3C//DTD SVG 1.1//EN" "http://www.w3.org/Graphics/SVG/1.1/DTD/svg11.dtd">
<svg version="1.1" id="Layer_1" xmlns="http://www.w3.org/2000/svg" xmlns:xlink="http://www.w3.org/1999/xlink" x="0px" y="0px"
	 width="36px" height="36px" viewBox="0 0 36 36" enable-background="new 0 0 36 36" xml:space="preserve">
<g>
	<g>
		<path fill="#222222" d="M33.34,0H2.65C1.19,0,0,1.16,0,2.6v30.8C0,34.84,1.19,36,2.65,36h30.69C34.8,36,36,34.84,36,33.4V2.6
			C36,1.16,34.8,0,33.34,0z M10.68,30.68H5.33V13.5h5.35V30.68z M8.01,11.15c-1.72,0-3.1-1.39-3.1-3.1s1.38-3.09,3.1-3.09
			c1.71,0,3.09,1.38,3.09,3.09S9.72,11.15,8.01,11.15z M30.68,30.68h-5.34V22.32c0-1.99-0.04-4.55-2.78-4.55
			c-2.77,0-3.199,2.17-3.199,4.41v8.5H14.03V13.5h5.121v2.34h0.069c0.71-1.35,2.45-2.77,5.05-2.77c5.41,0,6.41,3.56,6.41,8.18V30.68
			z"/>
	</g>
</g>
</svg>
