<?xml version="1.0" encoding="utf-8"?>
<!-- Generator: Adobe Illustrator 16.0.0, SVG Export Plug-In . SVG Version: 6.00 Build 0)  -->
<!DOCTYPE svg PUBLIC "-//W3C//DTD SVG 1.0//EN" "http://www.w3.org/TR/2001/REC-SVG-20010904/DTD/svg10.dtd">
<svg version="1.0" id="Logo" xmlns="http://www.w3.org/2000/svg" xmlns:xlink="http://www.w3.org/1999/xlink" x="0px" y="0px"
	 width="2048px" height="2048px" viewBox="0 0 2048 2048" enable-background="new 0 0 2048 2048" xml:space="preserve">
<path fill="#EEEEEE" d="M1024,0C458.46,0,0,458.46,0,1024s458.46,1024,1024,1024s1024-458.46,1024-1024S1589.54,0,1024,0z
	 M1513.24,823.17c-6.601,53.66-21.58,102.85-44.96,147.55c-23.36,44.7-54.91,83.16-94.65,115.37
	c-39.76,32.22-87.55,57.25-143.36,75.12c-55.829,17.88-119.77,26.82-191.85,26.82H901.63l-29.25,238.229
	c18.69,3.37,33.42,6.05,44.22,8.03c10.8,1.979,18.23,3.35,22.3,4.11c4.07,0.77,7.2,1.35,9.4,1.75
	c24.91,5.47,35.74,21.449,32.48,47.939l-11.07,90.12H531.39l11.07-90.12c3.24-26.479,17.99-42.47,44.25-47.939
	c2.28-0.4,5.56-0.98,9.84-1.75c4.27-0.771,12.06-2.141,23.35-4.12c11.29-1.98,26.72-4.66,46.29-8.03l98.77-804.49
	c-18.73-3.4-33.51-6.08-44.32-8.04c-10.8-1.98-18.25-3.36-22.32-4.12c-4.08-0.8-7.22-1.38-9.42-1.75
	c-24.91-5.47-35.73-21.45-32.47-47.94l11.06-90.12h459.1c74.09,0,137.16,8.69,189.2,26.06c52.04,17.38,93.77,41.65,125.21,72.82
	c31.43,31.18,52.91,68.48,64.44,111.92C1516.97,724.02,1519.57,771.55,1513.24,823.17z M1269.25,681.35
	c-16.32-16.85-37.99-29.76-65-38.71c-27.03-8.95-59.44-13.42-97.22-13.42H970.24l-48.85,397.839h136.77
	c37.83,0,71.38-4.729,100.63-14.189c29.25-9.45,54.17-22.99,74.74-40.62c20.55-17.62,36.989-39.08,49.31-64.39
	c12.3-25.29,20.37-53.53,24.2-84.7c3.63-29.63,2.33-56.46-3.92-80.49C1296.86,718.64,1285.57,698.2,1269.25,681.35z"/>
</svg>
