<?xml version="1.0" encoding="utf-8"?>
<!-- Generator: Adobe Illustrator 16.0.0, SVG Export Plug-In . SVG Version: 6.00 Build 0)  -->
<!DOCTYPE svg PUBLIC "-//W3C//DTD SVG 1.1//EN" "http://www.w3.org/Graphics/SVG/1.1/DTD/svg11.dtd">
<svg version="1.1" id="Layer_1" xmlns="http://www.w3.org/2000/svg" xmlns:xlink="http://www.w3.org/1999/xlink" x="0px" y="0px"
	 width="20px" height="20px" viewBox="2 2 20 20" enable-background="new 2 2 20 20" xml:space="preserve">
<path fill="none" d="M0,0h24v24H0V0z"/>
<path fill="#EEEEEE" d="M20,2H8C6.9,2,6,2.9,6,4v12c0,1.1,0.9,2,2,2h12c1.1,0,2-0.9,2-2V4C22,2.9,21.1,2,20,2z M18,7h-3v5.5
	c0,1.38-1.12,2.5-2.5,2.5S10,13.88,10,12.5s1.12-2.5,2.5-2.5c0.57,0,1.08,0.19,1.5,0.51V5h4V7z M4,6H2v14c0,1.1,0.9,2,2,2h14v-2H4V6
	z"/>
</svg>
